<svg xmlns="http://www.w3.org/2000/svg" viewBox="0 0 1200 1200" role="img" aria-label="Sericia Drop No. 01 bundle">
  <!--
    Drop-001 bundle variant. Carries "DROP NO. 01" eyebrow to sit visually
    one tier above the single-product placeholders (same hierarchy idea as
    Aesop / Le Labo collection cards). Otherwise identical grammar:
    paper-card backdrop, silk strokes, double hairline frame, SERICIA
    wordmark, italic serif Sericia, italic tagline, RESCUED footer.
    No kanji (project rule: brand assets MUST be kanji-free).
  -->
  <defs>
    <linearGradient id="silk" x1="0" y1="0" x2="1" y2="1">
      <stop offset="0%" stop-color="#5c5d45" stop-opacity="0"/>
      <stop offset="50%" stop-color="#5c5d45" stop-opacity="0.28"/>
      <stop offset="100%" stop-color="#5c5d45" stop-opacity="0"/>
    </linearGradient>
  </defs>

  <!-- Deeper paper tone so the bundle card reads as a hero tile -->
  <rect width="1200" height="1200" fill="#ebe4d4"/>

  <!-- Silk-fibre strokes -->
  <g opacity="0.55" fill="none" stroke="url(#silk)" stroke-width="0.6">
    <path d="M -100 140 Q 300 110, 700 145 T 1300 130"/>
    <path d="M -100 240 Q 300 210, 700 245 T 1300 230"/>
    <path d="M -100 340 Q 300 310, 700 345 T 1300 330"/>
    <path d="M -100 440 Q 300 410, 700 445 T 1300 430"/>
    <path d="M -100 540 Q 300 510, 700 545 T 1300 530"/>
    <path d="M -100 640 Q 300 610, 700 645 T 1300 630"/>
    <path d="M -100 740 Q 300 710, 700 745 T 1300 730"/>
    <path d="M -100 840 Q 300 810, 700 845 T 1300 830"/>
    <path d="M -100 940 Q 300 910, 700 945 T 1300 930"/>
    <path d="M -100 1040 Q 300 1010, 700 1045 T 1300 1030"/>
  </g>

  <!-- Luxury double hairline frame -->
  <rect x="60" y="60" width="1080" height="1080" fill="none" stroke="#21231d" stroke-width="1"/>
  <rect x="72" y="72" width="1056" height="1056" fill="none" stroke="#21231d" stroke-width="0.5"/>

  <!-- Top letterspaced wordmark -->
  <text x="600" y="200" text-anchor="middle" fill="#21231d"
        font-family="Helvetica, 'Helvetica Neue', Arial, sans-serif"
        font-size="26" font-weight="300" letter-spacing="14">SERICIA</text>
  <line x1="540" y1="235" x2="660" y2="235" stroke="#21231d" stroke-width="0.8"/>

  <!-- Drop eyebrow (bundle-specific tier marker) -->
  <text x="600" y="410" text-anchor="middle" fill="#5c5d45"
        font-family="Helvetica, 'Helvetica Neue', Arial, sans-serif"
        font-size="20" letter-spacing="12">DROP NO. 01</text>

  <!-- Dominant italic serif wordmark -->
  <text x="600" y="670" text-anchor="middle" fill="#21231d"
        font-family="'Cormorant Garamond', 'Didot', 'Playfair Display', Georgia, serif"
        font-size="220" font-weight="400" font-style="italic"
        letter-spacing="0.01em">Sericia</text>

  <!-- Hairline under the serif wordmark -->
  <line x1="440" y1="740" x2="760" y2="740" stroke="#21231d" stroke-width="0.6"/>

  <!-- Italic tagline -->
  <text x="600" y="830" text-anchor="middle" fill="#21231d"
        font-family="'Cormorant Garamond', 'Didot', 'Playfair Display', Georgia, serif"
        font-size="40" font-weight="300" font-style="italic">Curated bundle · 303 units</text>

  <!-- Footer rule + tagline -->
  <line x1="450" y1="1030" x2="750" y2="1030" stroke="#a8a297" stroke-width="0.5"/>
  <text x="600" y="1080" text-anchor="middle" fill="#7b7d73"
        font-family="Helvetica, 'Helvetica Neue', Arial, sans-serif"
        font-size="14" letter-spacing="6">RESCUED JAPANESE CRAFT FOOD</text>
</svg>
